<?xml version="1.0" encoding="UTF-8"?><svg id="Layer_1" xmlns="http://www.w3.org/2000/svg" viewBox="0 0 279.94 279.94"><defs><style>.cls-1{fill:#f7931a;}.cls-2{fill:#fff;}</style></defs><path class="cls-1" d="M140,0C62.69,0,0,62.69,0,139.94s62.69,140,140,140,139.94-62.69,139.94-140S217.31,0,140,0Z"/><path class="cls-2" d="M202.45,162.08c-4.22-7.03-11.68-12.78-22.26-17.43,9.91-.37,17.68-2.51,23.18-6.42,5.44-3.98,9.11-9.91,10.83-17.86,2.45-11.5,.12-20.98-6.97-28.32-6.3-6.54-16.7-11.56-30.95-15.23l5.5-25.81-17.13-3.61-5.44,25.69-15.05-3.18,5.44-25.69-17.13-3.61-5.44,25.69-33.09-7.09-3.3,15.41,7.95,1.71c6.05,1.28,9.6,2.81,10.76,4.53,1.16,1.77,1.16,5.44,0,11.01l-17.13,80.61c-1.16,5.57-2.63,8.93-4.46,10.03-1.77,1.16-5.69,1.04-11.68-.24l-7.95-1.71-3.3,15.54,33.09,7.03-5.44,25.69,17.13,3.61,5.44-25.69,15.05,3.18-5.44,25.69,17.13,3.61,5.5-25.87c17.06,2.87,30.03,2.75,38.84-.49,10.28-3.73,16.88-12.35,19.76-25.81,1.9-9.54,.73-17.92-3.43-24.95Zm-70.64-34.01l9.05-42.57,19.69,4.16c10.34,2.2,17.49,5.44,21.16,9.66,3.67,4.22,4.71,10.21,3.12,17.74-1.65,7.65-5.14,12.54-10.64,14.8s-13.82,2.26-24.89-.12l-17.49-3.67h0Zm33.09,67.58c-5.81,2.63-14.43,2.75-26.18,.24l-20.49-4.34,10.15-47.77,18.72,3.98c12.54,2.69,21.04,6.36,25.38,11.07,4.4,4.71,5.69,11.25,3.79,19.94-1.77,8.56-5.57,14.19-11.38,16.88Z"/></svg>