<?xml version="1.0" encoding="UTF-8"?><svg id="Layer_2" xmlns="http://www.w3.org/2000/svg" viewBox="0 0 279.94 279.94"><defs><style>.cls-1{fill:#fff;}.cls-2{fill:#a5a5ff;}.cls-3{fill:#d2d2ff;}.cls-4{fill:#c3c3ff;}.cls-5{fill:#6e69eb;}</style></defs><g id="Layer_1-2"><g><path class="cls-5" d="M139.97,0C62.77,0,0,62.77,0,139.97s62.77,139.97,139.97,139.97,139.97-62.77,139.97-139.97S217.17,0,139.97,0Z"/><g><path class="cls-1" d="M139.75,27.56l69.11,113.94-70.42,40.24-67.8-40.46L139.75,27.56Zm0,224.83l-72.61-100.6,71.08,42.43,74.14-42.65-72.61,100.82Z"/><polygon class="cls-3" points="139.75 27.56 138.44 181.74 208.86 141.5 139.75 27.56"/><polygon class="cls-3" points="138.22 194.21 139.75 252.38 212.36 151.56 138.22 194.21"/><polygon class="cls-4" points="70.64 141.28 138.98 109.66 138.44 181.74 70.64 141.28"/><polygon class="cls-2" points="138.98 109.66 208.86 141.5 138.44 181.74 138.98 109.66"/></g></g></g></svg>