<?xml version="1.0" encoding="UTF-8"?><svg id="a" xmlns="http://www.w3.org/2000/svg" xmlns:xlink="http://www.w3.org/1999/xlink" viewBox="0 0 758.73 738.92"><defs><radialGradient id="b" cx="399.3" cy="359.42" fx="399.3" fy="359.42" r="351.66" gradientUnits="userSpaceOnUse"><stop offset=".03" stop-color="#ae5ea4"/><stop offset=".34" stop-color="#8f4b9b"/><stop offset=".89" stop-color="#5c2d8c"/><stop offset=".95" stop-color="#5a2c8a"/><stop offset=".98" stop-color="#552b83"/><stop offset=".99" stop-color="#4d2877"/><stop offset="1" stop-color="#482770"/></radialGradient><linearGradient id="c" x1="219.63" y1="48.21" x2="578.98" y2="670.63" gradientUnits="userSpaceOnUse"><stop offset="0" stop-color="#de9d26"/><stop offset="0" stop-color="#f8c927"/><stop offset=".32" stop-color="#e2ae24"/><stop offset=".68" stop-color="#fcf290"/><stop offset="1" stop-color="#ffd43f"/></linearGradient><linearGradient id="d" x1="271.41" y1="413.49" x2="340.93" y2="413.49" xlink:href="#c"/><linearGradient id="e" x1="457.67" y1="413.49" x2="527.2" y2="413.49" xlink:href="#c"/><linearGradient id="f" x1="120.62" y1="419.28" x2="677.99" y2="419.28" xlink:href="#c"/><linearGradient id="g" x1="358.59" y1="293.97" x2="440.02" y2="293.97" xlink:href="#c"/></defs><circle cx="399.3" cy="359.42" r="351.66" style="fill:url(#b); stroke-width:0px;"/><path d="m399.3,718.84c-198.19,0-359.42-161.24-359.42-359.42S201.12,0,399.3,0s359.42,161.24,359.42,359.42-161.24,359.42-359.42,359.42Zm0-703.33C209.67,15.52,55.4,169.79,55.4,359.42s154.27,343.9,343.9,343.9,343.9-154.27,343.9-343.9S588.93,15.52,399.3,15.52Z" style="fill:url(#c); stroke-width:0px;"/><path d="m305.17,369.88s-19.34-18.29-33.76-21.1v54.86l67.53,74.56s6.33-23.21-3.52-53.46c0,0-34.11-14.42-30.25-54.86Z" style="fill:url(#d); stroke-width:0px;"/><path d="m463.19,424.74c-9.85,30.25-3.52,53.46-3.52,53.46l67.53-74.56v-54.86c-14.42,2.81-33.76,21.1-33.76,21.1,3.87,40.44-30.25,54.86-30.25,54.86Z" style="fill:url(#e); stroke-width:0px;"/><path d="m460.4,262.93l-49.36,85.49c-5.08,8.79-18.41,8.79-23.48,0l-49.36-85.49c-85.08,47.25-217.58-35.98-217.58-35.98,37.26,48.51,79.71,69.73,115.3,78.37,56.73,13.77,105.7,47.61,135.16,95.53l.66,1.07c-1.98,7.97-2.98,16.13-2.98,24.32v108.85c0,2.43-.26,4.83-.69,7.2-11.04,7.17-18.09,18.05-18.09,30.23,0,21.58,22.09,39.08,49.33,39.08s49.33-17.5,49.33-39.08c0-12.19-7.05-23.07-18.09-30.23-.43-2.37-.69-4.77-.69-7.2v-108.85c0-8.19-1-16.35-2.98-24.32l.66-1.07c29.46-47.92,78.43-81.77,135.16-95.53,35.59-8.64,78.04-29.86,115.3-78.37,0,0-161.08,85.96-217.58,35.98Zm-61.1,342.49c-22.9,0-41.52-14.76-41.52-32.9,0-2.56.41-5.03,1.11-7.42h80.84c.7,2.39,1.11,4.87,1.11,7.42,0,18.14-18.63,32.9-41.52,32.9Z" style="fill:url(#f); stroke-width:0px;"/><path d="m407.13,321.07l32.89-60.17s-42.53,16.92-81.43,0l32.89,60.17s8.31,13.43,15.65,0Z" style="fill:url(#g); stroke-width:0px;"/><text/></svg>